# xmcd CD database file
#
# Track frame offsets:
#	150
#	15992
#	36470
#	55295
#	73107
#	87045
#	107402
#	129560
#	143685
#	159912
#	176437
#	195365
#	211002
#
# Disc length: 2969 seconds
#
# Revision: 1
# Processed by: cddbd v1.5.2PL0 Copyright (c) Steve Scherf et al.
# Submitted via: CDex 1.51
#
DISCID=a00b970d
DTITLE=Depp Jones - Return To Caramba!
DYEAR=1990
DGENRE=Metal
TTITLE0=Little Eden
TTITLE1=Luxury
TTITLE2=Mission Impossible
TTITLE3=What About Me
TTITLE4=Punkparty Doomroom
TTITLE5=Amok
TTITLE6=Meine Hand riecht einsam
TTITLE7=Addicted
TTITLE8=Love Is A Ghost
TTITLE9=(Don't Tell Me) Lies
TTITLE10=Sweet'n'Spicy
TTITLE11=Assholes On Fire
TTITLE12=Just Say Yes
EXTD=YEAR: 1990
EXTT0=
EXTT1=
EXTT2=
EXTT3=
EXTT4=
EXTT5=
EXTT6=
EXTT7=
EXTT8=
EXTT9=
EXTT10=
EXTT11=
EXTT12=
PLAYORDER=
